<?xml version="1.0" encoding="UTF-8" standalone="no"?>
<svg
   xmlns:dc="http://purl.org/dc/elements/1.1/"
   xmlns:cc="http://creativecommons.org/ns#"
   xmlns:rdf="http://www.w3.org/1999/02/22-rdf-syntax-ns#"
   xmlns:svg="http://www.w3.org/2000/svg"
   xmlns="http://www.w3.org/2000/svg"
   xmlns:sodipodi="http://sodipodi.sourceforge.net/DTD/sodipodi-0.dtd"
   xmlns:inkscape="http://www.inkscape.org/namespaces/inkscape"
   id="melior"
   viewBox="0 0 256 256"
   version="1.1"
   sodipodi:docname="logo.svg"
   width="256"
   height="256"
   inkscape:version="0.92.2 2405546, 2018-03-11">
  <metadata
     id="metadata869">
    <rdf:RDF>
      <cc:Work
         rdf:about="">
        <dc:format>image/svg+xml</dc:format>
        <dc:type
           rdf:resource="http://purl.org/dc/dcmitype/StillImage" />
        <dc:title></dc:title>
      </cc:Work>
    </rdf:RDF>
  </metadata>
  <defs
     id="defs867" />
  <sodipodi:namedview
     pagecolor="#ffffff"
     bordercolor="#666666"
     borderopacity="1"
     objecttolerance="10"
     gridtolerance="10"
     guidetolerance="10"
     inkscape:pageopacity="0"
     inkscape:pageshadow="2"
     inkscape:window-width="1920"
     inkscape:window-height="1009"
     id="namedview865"
     showgrid="false"
     inkscape:zoom="1.1352378"
     inkscape:cx="16.877734"
     inkscape:cy="204.62231"
     inkscape:window-x="0"
     inkscape:window-y="0"
     inkscape:window-maximized="1"
     inkscape:current-layer="melior" />
  <rect
     style="fill:#43286a;fill-opacity:1;stroke:none;stroke-width:7.73311043;stroke-opacity:1"
     id="rect871"
     width="256"
     height="256"
     x="0"
     y="0" />
  <path
     d="m 215.71426,221.99115 h -30.06858 c -9.05291,0 -10.93403,1.08752 -10.78707,-2.93926 0.20575,-5.49641 1.9693,-5.70215 7.73024,-7.31874 4.79099,-1.32267 2.93926,-9.84651 -2.3514,-17.28282 -3.76225,-5.17309 -11.4337,-11.19857 -21.48596,-6.52515 a 31.596992,31.596992 0 0 0 -13.403,10.34618 c -4.93795,6.84846 -4.67341,13.34422 2.93926,13.34422 7.61267,0 15.84258,-4.40889 18.31155,1.88112 2.93926,7.75963 0.96996,8.49445 -0.52906,8.49445 h -48.145 v 0 c -25.806662,0 -51.583922,-0.20575 -57.462432,-16.51862 -8.2887,-22.57348 21.83866,-31.27367 22.77922,-45.44088 0.3821,-5.87851 -2.93925,-8.37687 -6.87785,-8.37687 H 58.728648 V 140.8971 H 47.824015 v -32.3318 h 10.757673 v 10.84585 h 10.69889 v 10.72828 h 10.72827 v 14.93142 a 16.930109,16.930109 0 0 1 9.02351,14.84323 c -0.49967,16.19529 -27.92291,25.18941 -22.89678,42.17831 4.58523,15.54866 39.297832,11.75702 38.210302,2.17505 l -0.67603,-5.49641 c -0.17635,-7.70085 -1.38145,-17.98824 0.23514,-27.09993 2.52776,-14.34357 11.43371,-26.74722 27.09994,-26.86479 2.93925,0 5.23187,-0.61724 5.23187,-2.93925 0,-2.32201 -4.55585,-2.46898 -7.75963,-2.79229 A 68.631606,68.631606 0 0 1 91.560118,124.37849 c -7.14239,-5.87851 -18.25276,-24.395816 -10.99281,-23.01437 a 63.899405,63.899405 0 0 0 11.93337,1.1757 c 3.64468,0 13.050302,-1.02873 13.050302,-3.262568 0,-2.939255 -5.43762,-1.234487 -13.432402,-1.998693 -9.67015,-1.028739 -29.89221,-5.114304 -40.47353,-35.917697 -3.791641,-11.52188 -6.378185,-33.096 0,-26.129977 36.62311,40.267794 49.056162,33.713255 70.071832,47.498361 9.25865,6.054866 15.25473,20.574784 20.57479,19.340294 3.5271,-0.79359 1.35205,-4.026775 1.88112,-11.551268 0.52906,-6.672109 3.73285,-8.200521 -4.3501,-10.228607 -9.58197,-2.380797 -19.16394,-12.873937 -12.90333,-12.726975 a 34.947743,34.947743 0 0 0 16.25408,-2.233834 c 5.49641,-2.380796 18.89941,-12.580011 26.98236,-8.494447 8.08295,4.085565 14.93142,-1.763553 20.39843,-0.734814 7.96538,1.49902 10.02286,12.462442 8.96473,18.870018 -0.64663,4.056172 -0.64663,4.056172 -5.87851,3.762247 -10.61071,-0.617244 -13.31482,7.847811 -5.87851,12.491834 11.37492,7.112997 16.1953,12.433046 19.28151,28.158066 1.49902,7.64206 0.29393,9.40561 -2.23383,7.99477 -2.52776,-1.41084 -6.87786,-2.11626 -0.85238,11.75702 6.02547,13.87328 -3.79164,30.21554 -7.02482,32.03788 a 3.8210316,3.8210316 0 0 0 -2.67473,3.9386 c 0,33.56629 0,36.06466 5.64337,36.6819 8.52384,0.91117 12.16852,-4.23253 15.48988,0.17636 4.64402,6.29 4.99673,10.02286 0.32332,10.02286 z M 47.824015,96.426175 H 36.948771 v 10.728285 h 10.875244 z"
     id="path862"
     inkscape:connector-curvature="0"
     style="fill:#ffffff;stroke-width:2.939255" />
</svg>
